<svg width="1633" height="800" viewBox="0 0 1633 800" fill="none" xmlns="http://www.w3.org/2000/svg">
<path d="M758.344 330.188C738.552 331.229 721.885 338.781 708.344 352.844C695.323 366.906 685.948 383.052 680.219 401.281C674.49 418.99 671.625 437.219 671.625 455.969C671.625 474.719 674.229 493.208 679.438 511.438C685.167 529.667 694.802 545.812 708.344 559.875C721.885 573.417 738.552 580.708 758.344 581.75H1016.16C1048.97 584.875 1066.94 602.844 1070.06 635.656C1069.54 650.24 1064.07 662.479 1053.66 672.375C1043.24 681.75 1030.74 686.438 1016.16 686.438H766.938H731C694.542 684.354 664.594 670.552 641.156 645.031C617.719 618.99 600.792 589.562 590.375 556.75C580.479 523.938 575.531 490.344 575.531 455.969C575.531 430.448 578.396 405.188 584.125 380.188C589.854 355.188 598.708 331.49 610.688 309.094C623.188 286.177 639.594 266.646 659.906 250.5C680.74 234.354 704.438 226.021 731 225.5H745.844H1016.16C1048.97 228.625 1066.94 246.594 1070.06 279.406C1070.06 293.99 1064.59 306.229 1053.66 316.125C1043.24 325.5 1030.74 330.188 1016.16 330.188H758.344Z" fill="#888888"/>
<path d="M34.375 277.844C34.375 263.26 39.3229 251.021 49.2188 241.125C59.6354 230.708 72.1354 225.5 86.7188 225.5H541.406C555.99 225.5 568.49 230.448 578.906 240.344C588.802 250.76 593.75 263.26 593.75 277.844C593.75 292.427 588.542 304.927 578.125 315.344C568.229 325.24 555.99 330.188 541.406 330.188H367.188V646.594C364.062 677.844 346.875 694.771 315.625 697.375C301.042 697.375 288.281 692.688 277.344 683.312C266.927 673.417 261.719 661.177 261.719 646.594V330.188H86.7188C72.1354 330.188 59.8958 324.979 50 314.562C39.5833 304.667 34.375 292.427 34.375 277.844Z" fill="#888888"/>
<path d="M1334.44 204.406C1361.52 204.406 1388.08 207.531 1414.12 213.781C1440.69 220.031 1465.95 229.406 1489.91 241.906C1513.86 253.885 1534.96 270.031 1553.19 290.344C1571.94 310.656 1582.09 334.875 1583.66 363V395.812V645.031C1580.53 676.281 1563.34 693.208 1532.09 695.812C1517.51 695.812 1504.75 691.125 1493.81 681.75C1483.4 671.854 1478.19 659.615 1478.19 645.031V387.219C1477.15 371.073 1470.9 357.792 1459.44 347.375C1448.5 336.438 1436 327.844 1421.94 321.594C1408.4 315.344 1394.07 310.656 1378.97 307.531C1364.39 304.406 1349.54 302.844 1334.44 302.844C1319.33 302.844 1304.23 304.406 1289.12 307.531C1274.54 310.656 1260.22 315.344 1246.16 321.594C1232.61 327.844 1220.11 336.438 1208.66 347.375C1197.72 357.792 1191.73 371.073 1190.69 387.219V645.031C1188.08 676.281 1171.16 693.208 1139.91 695.812C1125.32 695.812 1112.56 691.125 1101.62 681.75C1091.21 671.854 1086 659.615 1086 645.031V395.812V363C1087.56 334.875 1097.46 310.656 1115.69 290.344C1133.92 270.031 1155.01 253.885 1178.97 241.906C1202.93 229.406 1227.93 220.031 1253.97 213.781C1280.53 207.531 1307.35 204.406 1334.44 204.406Z" fill="#CBDA29"/>
</svg>
